<?xml version="1.0" encoding="utf-8"?>
<!-- Generator: Adobe Illustrator 19.0.0, SVG Export Plug-In . SVG Version: 6.00 Build 0)  -->
<svg version="1.1" id="Layer_1" xmlns="http://www.w3.org/2000/svg" xmlns:xlink="http://www.w3.org/1999/xlink" x="0px" y="0px"
	 viewBox="0 0 259.6 172.7" style="enable-background:new 0 0 259.6 172.7;" xml:space="preserve">
<style type="text/css">
	.st0{fill:#F38554;}
	.st1{fill:#FF9D6E;}
	.st2{fill:#DC582A;}
	.st3{fill:#F38453;}
	.st4{fill:#C05131;}
	.st5{fill:#FF7F41;}
	.st6{fill:#A14B24;}
	.st7{fill-rule:evenodd;clip-rule:evenodd;fill:#231F20;}
</style>
<g>
	<g>
		<path class="st0" d="M184.4,84.6c1.6-8.3,8.1-14.9,16.4-16.6c1.2-1.5,2.6-2.8,4.3-3.9c-2.7-1.7-6-2.7-9.4-2.7
			c-9.8,0-17.8,8-17.8,17.8c0,3.5,1,6.8,2.8,9.6C181.7,87.2,182.9,85.8,184.4,84.6z"/>
		<path class="st1" d="M209.4,67.9c8.3,1.7,14.8,8.2,16.5,16.4c1.5,1.2,2.7,2.6,3.8,4.2c1.8-2.8,2.8-6.1,2.8-9.6
			c0-9.8-8-17.8-17.8-17.8c-3.6,0-6.9,1.1-9.7,2.9C206.7,65.1,208.2,66.4,209.4,67.9z"/>
		<path class="st2" d="M200.8,68c1.4-0.3,2.9-0.5,4.4-0.5c1.4,0,2.9,0.1,4.2,0.4c-1.2-1.5-2.7-2.8-4.4-3.9
			C203.4,65.1,202,66.5,200.8,68z"/>
		<path class="st1" d="M201,109.5c-8.3-1.7-14.9-8.2-16.6-16.6c-1.5-1.2-2.7-2.6-3.8-4.2c-1.8,2.8-2.8,6.1-2.8,9.6
			c0,9.8,8,17.8,17.8,17.8c3.6,0,6.9-1.1,9.7-2.9C203.7,112.2,202.2,111,201,109.5z"/>
		<path class="st2" d="M184.4,92.9c-0.3-1.4-0.4-2.8-0.4-4.2c0-1.4,0.1-2.8,0.4-4.1c-1.5,1.2-2.7,2.6-3.7,4.2
			C181.7,90.3,183,91.7,184.4,92.9z"/>
		<path class="st3" d="M229.7,88.6c-1,1.6-2.3,3-3.7,4.2c-1.6,8.4-8.2,15-16.5,16.7c-1.2,1.5-2.6,2.8-4.2,3.8c2.7,1.7,6,2.7,9.4,2.7
			c9.8,0,17.8-8,17.8-17.8C232.5,94.7,231.5,91.4,229.7,88.6z"/>
		<path class="st2" d="M225.9,84.4c0.3,1.4,0.4,2.8,0.4,4.3c0,1.4-0.1,2.7-0.4,4c1.4-1.2,2.7-2.6,3.7-4.2
			C228.7,87,227.4,85.6,225.9,84.4z"/>
		<path class="st4" d="M209.5,109.5c-1.4,0.3-2.8,0.4-4.3,0.4c-1.4,0-2.8-0.1-4.2-0.4c1.2,1.5,2.7,2.7,4.3,3.8
			C206.9,112.2,208.3,110.9,209.5,109.5z"/>
		<path class="st2" d="M197,78.6c0.1-4,1.5-7.7,3.8-10.7c-8.3,1.7-14.8,8.3-16.4,16.6c2.9-2.4,6.6-3.8,10.6-4
			C195.6,79.9,196.3,79.2,197,78.6z"/>
		<path class="st5" d="M215.2,80.4c4.1,0.1,7.8,1.6,10.7,4c-1.7-8.3-8.2-14.8-16.5-16.4c2.4,2.9,3.9,6.6,4,10.7
			C214,79.2,214.7,79.8,215.2,80.4z"/>
		<path class="st4" d="M205.2,75.7c3.1,0,6,1.1,8.2,2.9c-0.1-4-1.6-7.8-4-10.7c-1.4-0.3-2.8-0.4-4.2-0.4c-1.5,0-3,0.2-4.4,0.5
			c-2.3,2.9-3.7,6.6-3.8,10.7C199.2,76.8,202.1,75.7,205.2,75.7z"/>
		<path class="st5" d="M195.1,96.9c-4-0.1-7.8-1.6-10.7-4c1.7,8.3,8.3,14.9,16.6,16.6c-2.4-2.9-3.9-6.6-4-10.7
			C196.3,98.2,195.7,97.6,195.1,96.9z"/>
		<path class="st4" d="M192.2,88.7c0-3.1,1.1-5.9,2.8-8.1c-4,0.1-7.7,1.6-10.6,4c-0.3,1.3-0.4,2.7-0.4,4.1c0,1.4,0.1,2.9,0.4,4.2
			c2.9,2.4,6.6,3.9,10.7,4C193.3,94.7,192.2,91.8,192.2,88.7z"/>
		<path class="st2" d="M213.4,98.8c-0.1,4-1.5,7.7-3.9,10.7c8.3-1.7,14.9-8.3,16.5-16.7c-2.9,2.4-6.6,3.8-10.6,4
			C214.8,97.5,214.1,98.2,213.4,98.8z"/>
		<path class="st4" d="M225.9,84.4c-2.9-2.4-6.7-3.9-10.7-4c1.9,2.2,3,5.1,3,8.3c0,3-1,5.8-2.8,8c4-0.1,7.7-1.6,10.6-4
			c0.3-1.3,0.4-2.7,0.4-4C226.4,87.2,226.2,85.8,225.9,84.4z"/>
		<path class="st6" d="M205.2,101.7c-3.1,0-6-1.1-8.2-2.9c0.1,4.1,1.6,7.8,4,10.7c1.3,0.3,2.7,0.4,4.2,0.4c1.5,0,2.9-0.2,4.3-0.4
			c2.4-2.9,3.8-6.6,3.9-10.7C211.2,100.6,208.3,101.7,205.2,101.7z"/>
	</g>
	<g>
		<path class="st7" d="M100.3,128.3c-1.2,0.1-2.4,0.4-3.5,0.7c-1.4,0.4-2.8,1.1-4.1,1.7c-4.4,2.1-8.5,5.1-11.8,8.6
			c-1.7,1.8-3.3,3.9-4.6,6c-1.4,2.2-2.4,4.5-3.4,6.9c-0.4,1-0.9,2-1.2,3.1c-0.3,1.2-0.4,2.5-0.3,3.8c0.1,0.7,0.2,1.3,0.3,2
			c0.2,0.7,0.5,1.7,0.9,2.3c0.3,0.5,0.7,1,1.1,1.5c-0.6,0.1-1.2,0.2-1.7,0.3c-3.4,0.4-6.9,0.4-10.3,0.3c0,0,0,0,0,0
			c2.3,0.3,4.5,0.5,6.8,0.6c2.1,0.1,4.1,0,6.2-0.2c0.1,0.1,0.1,0.1,0.2,0.2c1.9,1.6,4,2.7,6.3,3.4c1.2,0.4,2.4,0.5,3.7,0.7
			c1.3,0.2,2.7,0.1,4,0c2.5-0.2,5-0.7,7.5-1.4c2.5-0.7,4.9-1.7,7.3-2.7c4.7-1.9,9.2-4.2,13.5-6.9c2.2-1.4,4.4-2.9,6.6-4.4
			c1.4-1,2.8-2,4.2-3c1.5-1.1,2.9-2.2,4.4-3.3c-0.7,1.1-1.5,2.2-2.3,3.3c-0.5,0.7-1.1,1.3-1.7,2c-0.5,0.6-1,1.3-1.6,1.9
			c-0.7,0.8-1.4,1.5-2.1,2.3c-0.3,0.4-0.8,0.7-1.2,1c-0.4,0.3-1.1,1.1-1.3,1.5c-0.4,0.8-0.7,1.5-0.7,2.5c0,0.7,0.1,1.3,0.2,1.9
			c0.2,1.1,1.1,2,2,2.6c1.4,0.8,2.9,0.7,4.3,0c1.4-0.7,2.8-1.3,4-2.2c1.4-0.9,2.6-2,3.9-3c1.1-0.9,2.3-1.9,3.4-2.8
			c1.8-1.5,3.6-2.9,5.4-4.4c3.9-3.2,7.8-6.4,11.7-9.5c-0.3,0.8-0.6,1.6-0.9,2.3c-0.3,0.9-0.6,1.7-0.9,2.6c-0.3,0.9-0.6,1.8-0.9,2.7
			c-0.2,0.6-0.3,1.2-0.5,1.8c-0.2,0.7-0.5,1.5-0.5,2.2c-0.1,1,0,2,0.3,3c0.3,0.9,1,1.6,1.7,2.1c1.5,1.2,3.4,1.5,5.3,1.2
			c2.3-0.4,4.4-1.3,6.4-2.5c2-1.2,3.8-2.7,5.6-4.1c0,0,0,0,0,0c1.2-0.9,2.3-1.8,3.6-2.6c0,0,0,0,0,0c-3.2,1.9-6.2,4.2-9.7,5.7
			c0,0,0,0,0,0c-1.5,0.6-3,1-4.5,1.3c-0.9,0.1-1.8,0.1-2.7,0c-0.3,0-0.6-0.1-0.8-0.2c-0.4-0.2-0.7-0.4-1-0.6
			c-0.2-0.2-0.4-0.4-0.6-0.6c0.1,0.1,0.1,0.2,0.2,0.3c-0.2-0.2-0.4-0.5-0.5-0.7c0-0.1-0.1-0.2-0.1-0.3c0-0.4,0-0.8,0-1.2
			c0.2-0.9,0.6-1.8,1-2.6c0.2-0.6,0.5-1.2,0.7-1.9c0.4-0.9,0.8-1.8,1.1-2.7c0.4-1,0.9-2.1,1.3-3.1c0.4-0.9,0.8-1.8,1.2-2.8
			c0.4-1,0.3-2.1,0.2-3.1c0-0.9-0.6-2-1.6-2.1c-0.6-0.1-1.2-0.2-1.8-0.2c-0.7,0-1.4,0.4-2.1,0.7c-0.7,0.4-1.4,0.8-2.2,1.3
			c-0.5,0.3-0.9,0.5-1.4,0.8c-1.1,0.7-2.2,1.3-3.3,2c-2.3,1.4-4.5,2.7-6.7,4.2c-0.9,0.6-1.7,1.1-2.6,1.7c0.2-0.4,0.4-0.8,0.6-1.2
			c0.7-1.6,1.4-3.3,1.8-5c0.2-0.9,0.3-2.1,0-3c-0.1-0.5-0.3-0.9-0.5-1.4c-0.2-0.4-0.4-0.7-0.6-1.1c-0.8-1.3-2.5-2.2-4-1.6
			c-1.3,0.5-2.5,0.9-3.7,1.6c-0.7,0.4-1.3,0.8-1.9,1.3c-0.9,0.6-1.9,1.2-2.8,1.8c-1.7,1.1-3.3,2.2-5,3.3c-2.1,1.3-4.2,2.7-6.4,4
			c-2.1,1.3-4.3,2.5-6.4,3.7c-2.6,1.4-5.3,2.7-8,3.8c-3.1,1.3-6.3,2.4-9.6,3.2c2.6-1.6,4.9-3.6,7.1-5.7c3.6-3.6,6.5-8,8.8-12.6
			c0.5-0.9,0.9-1.9,1.3-2.9c0.5-1.1,0.6-2.3,0.6-3.4c0-0.4-0.1-0.9-0.1-1.3c-0.1-0.6-0.4-1.1-0.6-1.6c-0.1-0.1-0.2-0.3-0.3-0.4
			c-0.2-0.4-0.5-0.7-0.9-1c-0.4-0.4-1-0.8-1.6-1.1c-1.4-0.9-3.2-1.2-4.8-1.2C101.7,128.1,101,128.2,100.3,128.3z M104,135.3
			c0.2,0.1,0.4,0.1,0.7,0.2c0,0.1,0,0.1,0,0.2c0,0.1,0,0.3,0,0.4c-0.4,2-1.1,3.9-1.9,5.7c-1.3,3-2.9,5.9-4.9,8.6
			c-2,2.5-4.2,4.8-6.7,6.8c-1.4,1.1-2.9,2.1-4.5,3c-0.3,0-0.6,0-0.9,0c-0.7-0.1-1.4-0.3-2-0.5c-0.6-0.3-1.2-0.7-1.8-1
			c0,0-0.1-0.1-0.1-0.1c0-0.2,0-0.5,0-0.7c0.2-0.8,0.5-1.6,0.8-2.5c0.3-0.9,0.6-1.8,1-2.7c1.1-2.5,2.5-4.7,4.1-6.9
			c1.7-2.1,3.6-4,5.7-5.7c1.8-1.4,3.8-2.7,5.9-3.6c1.1-0.4,2.1-0.7,3.3-0.9C103,135.2,103.5,135.2,104,135.3z M105.1,135.8
			c0,0,0.1,0.1,0.1,0.1C105.2,135.8,105.2,135.8,105.1,135.8z M158.3,143.5C158.3,143.6,158.2,143.6,158.3,143.5L158.3,143.5
			C158.2,143.6,158.3,143.6,158.3,143.5z M159.8,147.2c0,0.1-0.1,0.2-0.1,0.3C159.7,147.4,159.8,147.3,159.8,147.2z M98.2,149.9
			c-0.1,0.1-0.2,0.2-0.2,0.3C98,150.1,98.1,150,98.2,149.9z M158.5,150.3c0,0.1-0.1,0.2-0.1,0.3
			C158.4,150.4,158.5,150.4,158.5,150.3z M103.4,155.8c-0.1,0-0.2,0.1-0.3,0.1C103.2,155.9,103.3,155.8,103.4,155.8z M81.8,158.5
			c0.1,0.1,0.2,0.3,0.3,0.4C82,158.7,81.9,158.6,81.8,158.5C81.8,158.5,81.8,158.5,81.8,158.5z M155.4,158.7c0,0.1,0,0.3,0.1,0.4
			C155.5,158.9,155.5,158.8,155.4,158.7z M155.6,159.5c0,0,0,0.1,0.1,0.1C155.7,159.6,155.6,159.5,155.6,159.5z M161.2,161.1
			c-0.1,0-0.2,0-0.2,0C161.1,161.2,161.2,161.1,161.2,161.1z M71.7,165.1C71.7,165.1,71.6,165.1,71.7,165.1
			C71.6,165.1,71.7,165.1,71.7,165.1z"/>
		<path class="st7" d="M185.2,133.8c-2.8,3-5,6.3-5,6.3s-2.4,3.3-3.6,4.9c-1.2,1.6-2.2,3.2-3,5c-0.6,1.3-1.1,2.7-1.6,4
			c-0.2,0.7-0.4,1.4-0.6,2.1c-0.3,1.5-0.8,3.1-0.6,4.7c0.1,1,0.4,2,1.1,2.8c0.3,0.4,0.7,0.8,1.1,1.1c0.7,0.4,1.3,0.7,2,1
			c2.2,0.9,4.8,0.3,7-0.4c2.5-0.8,4.7-2.2,6.9-3.7c2.1-1.5,4.1-3.2,6-5c4.2-3.8,7.9-8.2,12-12.1c0,0,0,0,0,0c-2.4,2-4.8,4-7.3,5.8
			l0,0c0,0,0,0,0,0c0,0-0.1,0.1-0.1,0.1c0,0,0,0,0.1,0c-1,0.8-2.1,1.5-3.1,2.3c0,0,0.1-0.1,0.1-0.1c-3.7,2.6-7.5,5.1-11.7,6.8
			c-1.7,0.6-3.3,1.1-5.1,1.4c-0.6,0-1.3,0-1.9,0c-0.2,0-0.5-0.1-0.7-0.2c-0.1,0-0.2-0.1-0.2-0.1c0,0,0.1,0.1,0.1,0.1c0,0,0,0,0,0
			c0,0-0.1-0.1-0.1-0.1c0-0.3,0.1-0.6,0.1-1c0.6-3.6,3.4-6.9,4.9-10.3c0.9-2,5.4-10.7,11-17c5.6-6.3-1.5-4.6-4.6-1.3c0,0,0,0,0,0
			C187.9,130.9,187.9,130.9,185.2,133.8z M176.1,159.7c0.1,0.1,0.2,0.2,0.3,0.4c0,0,0,0,0,0.1C176.2,160,176.1,159.8,176.1,159.7z
			 M176.7,160.5C176.7,160.5,176.8,160.6,176.7,160.5c0.2,0.1,0.3,0.2,0.4,0.3C177,160.7,176.8,160.6,176.7,160.5z M196.3,152.5
			C196.3,152.5,196.3,152.5,196.3,152.5C196.3,152.5,196.3,152.5,196.3,152.5z M199.3,150.3C199.3,150.3,199.4,150.3,199.3,150.3
			C199.4,150.3,199.4,150.3,199.3,150.3C199.4,150.3,199.3,150.3,199.3,150.3z"/>
		<path class="st7" d="M122.9,0c-0.8,3.1-1.6,6.2-2.4,9.3c0-0.1,0-0.2,0.1-0.3c-2,7.7-4.7,15.3-8,22.5c-1.9,4.2-4,8.4-6.1,12.6
			c-1.8,3.4-3.5,6.8-5.2,10.3c-0.8,1.7-1.6,3.4-2.5,5c-3.2,5.9-6.2,11.9-9.2,18c-0.6,1.3-1.2,2.5-1.9,3.8c-1.6,2.8-3.1,5.6-4.7,8.4
			c-1.9,3.4-3.8,6.9-5.7,10.3c-3.2,5.1-6.4,10.3-9.5,15.4c-2.5,4.1-5.2,8.1-7.8,12.2c-1.9,2.8-3.7,5.7-5.6,8.5
			c-0.9,1.3-1.9,2.6-2.8,3.9c-1.4,1.9-2.8,3.8-4.3,5.7c-2.7,3.4-5.6,6.8-8.7,10c-2.2,2.2-4.5,4.2-7.1,5.9c-0.6-2.8-1-5.6-1-8.5
			c0-5,0.4-10,1.4-14.9c0.5-2.3,1-4.6,1.5-6.9c0.7-2.4,1.3-4.7,2-7.1c0.4-1.3,0.9-2.6,1.3-4c0.4-1.2,0.7-2.4,1.2-3.5
			c2.2-5.9,4.5-11.8,6.4-17.8c0.6-1.9,1.1-3.8,1.6-5.7c0.4-1.6,0.8-3.3,0.9-5c0.1-1.7,0.1-3.5-0.3-5.1c-0.2-0.6-0.3-1.1-0.5-1.7
			c-0.2-0.5-0.5-1-0.8-1.5c-0.5-0.8-1.2-1.5-1.9-2.1c-2.5-2-5.9-1.7-8.9-1.3c-1.3,0.2-2.5,0.4-3.8,0.6c-2.2,0.4-4.4,0.8-6.6,1.4
			c-3.4,0.9-6.6,2.2-9.7,3.7c-3,1.5-5.9,3.1-8.7,4.7c-0.9,0.5-1.8,0.9-2.8,1.2c-0.2,0-0.4,0.1-0.6,0.1c0.1,0,0.2,0,0.2,0
			c-0.2,0-0.3,0-0.5,0c-0.1-0.1-0.2-0.2-0.3-0.3c0,0,0.1,0.1,0.1,0.1c0-0.1-0.1-0.1-0.1-0.2c0,0,0-0.1-0.1-0.1c0,0,0-0.1,0-0.1
			c0-0.1,0-0.3,0.1-0.4c0.5-1.8,1.4-3.4,2.3-5c0.8-1.6,1.6-3.2,2.4-4.7c0,0,0,0,0,0c-1.3,1.9-2.7,3.9-4,5.8
			c-0.8,1.2-1.6,2.4-2.1,3.8c-0.2,0.6-0.1,1.4,0.3,2c0.5,0.7,1.2,0.9,2,0.9c2,0,3.8-0.9,5.6-1.6c0.8-0.3,1.6-0.6,2.5-0.9
			c2.6-1,5.3-2,8-2.8c1.6-0.4,3.2-0.8,4.9-1c1.9-0.3,3.9-0.5,5.9-0.6c1.2-0.1,2.4-0.1,3.6-0.2c1.8,0,3.6,0,5.4,0.4
			c0.1,0,0.1,0.1,0.2,0.1c0,0,0.1,0.1,0.1,0.1c0.1,0.1,0.1,0.3,0.2,0.4c0.1,0.4,0.2,0.9,0.2,1.3c-0.1,1.3-0.3,2.5-0.5,3.8
			c-1.3,4.8-3.3,9.4-5.1,14c-1,2.6-2,5.2-3,7.8c-1,2.6-1.9,5.2-2.7,7.9c-0.9,2.6-1.6,5.3-2.3,7.9c-0.3,1.2-0.7,2.4-1,3.7
			c-0.4,1.8-0.8,3.5-1.2,5.3c-0.4,2-0.8,4.1-1.1,6.1c-0.6,4.1-0.7,8.3-0.7,12.5c0,2.6,0.3,5.1,0.7,7.7c0.2,1.6,0.7,3.1,1.1,4.6
			c0.3,1,0.9,2.1,1.5,3c0.8,1.3,2.1,2.2,3.6,2.7c1.3,0.5,2.7,0.6,4.1,0.3c1.1-0.2,2.1-0.6,3.1-1c2-0.9,3.9-2.1,5.6-3.4
			c3.4-2.4,6.4-5.4,9.2-8.4c2.7-2.9,5.2-5.9,7.7-8.9c1.2-1.5,2.3-3,3.5-4.5c0.8-1,1.6-2.1,2.3-3.1c1.6-2.3,3.1-4.7,4.7-7
			c2.8-4.1,5.6-8.2,8.2-12.5c3.5-5.6,6.9-11.1,10.4-16.7c1.2-1.9,2.2-3.9,3.3-5.8c1.9-3.4,3.9-6.9,5.8-10.3c1.1-1.9,2.2-3.9,3.3-5.8
			c0.3-0.6,0.6-1.2,0.8-1.7c0.7-1.4,1.3-2.9,2-4.3c1.7-3.6,3.3-7.2,4.8-10.9c0.7-1.7,1.5-3.3,2.1-5c2.2-5.8,4.4-11.7,6.4-17.5
			c0.8-2.3,1.5-4.7,2.2-7.1c1.2-4,2.3-8.1,3-12.3c0.8-3.9,1.3-7.9,1.6-11.9c0.3-4,0.3-7.9,0.4-11.9C122.8,1.6,122.8,0.8,122.9,0
			C122.9,0,122.9,0,122.9,0C122.9,0,122.9,0,122.9,0z M1.6,87.1C1.6,87.1,1.6,87.2,1.6,87.1C1.6,87.2,1.6,87.1,1.6,87.1z"/>
		<path class="st7" d="M259.6,158.3c-2.9,1.5-5.8,3.3-8.8,4.6c0,0,0.1,0,0.1,0c-0.1,0-0.1,0-0.2,0.1c0,0,0,0,0,0
			c-2.1,0.9-4.2,1.4-6.4,1.8c-1.5,0.2-2.9,0.2-4.3,0c-0.8-0.2-1.6-0.4-2.4-0.7c-0.9-0.4-1.7-0.8-2.4-1.4c-0.4-0.3-0.7-0.6-1-1
			c0.1,0.1,0.2,0.3,0.3,0.4c-0.3-0.3-0.5-0.6-0.7-1c-0.2-0.6-0.4-1.2-0.5-1.9c-0.1-1.6,0.1-3.2,0.2-4.8l0.1-0.1
			c0.5-2.6,1-5.2,1.7-7.8c0.4-1.7,0.9-3.3,1.3-5c0.4-1.7,0.8-3.3,1.2-5c0.2-0.9,0.3-1.7,0.3-2.6c0-0.9-0.2-1.9-0.5-2.8
			c-0.2-0.9-0.8-1.7-1.5-2.1c-0.9-0.6-1.7-0.5-2.7-0.4c-1,0.1-1.8,0.4-2.6,1.1c-0.7,0.6-1.2,1.3-1.8,2c-0.6,0.7-1.2,1.4-1.7,2.2
			c-0.7,1-1.3,2-2,3c-1,1.5-1.9,3.1-2.7,4.8c0-0.1,0-0.1,0.1-0.2c-2,3.3-4,6.5-6.4,9.5c-2.2,2.6-4.6,5.2-7.3,7.3
			c-0.9,0.6-1.8,1.1-2.8,1.5c0,0-0.1,0-0.1,0c0-0.7,0.1-1.4,0.2-2.1c0.3-1.4,0.7-2.7,1.2-4c1-2.1,2.4-4,3.8-5.8
			c3-3.5,6.4-6.6,9.6-9.9c3.2-3.3,6.3-6.6,9.5-9.9c0,0,0,0,0,0c0,0,0,0,0,0c-3.9,2.3-7.8,4.8-11.6,7.3c-4.9,3.2-10,6.2-14.3,10.3
			c-1.8,1.7-3.4,3.7-4.5,5.9c-1.4,2.5-2.2,5.2-2.6,8c-0.2,1.4,0.1,3,0.7,4.3c0.6,1.4,1.5,2.7,2.8,3.6c1.1,0.7,2.2,1.2,3.5,1.4
			c1.6,0.3,3.1,0.2,4.7-0.2c1.2-0.3,2.4-0.9,3.5-1.5c1.4-0.7,2.6-1.6,3.8-2.5c2.2-1.7,4.2-3.8,6-5.9c2.7-3.2,5.1-6.7,7.1-10.3
			c-0.1,0.7-0.2,1.4-0.2,2.1c-0.1,1.5-0.3,3-0.4,4.6l0,0c0,0.3,0,0.5,0,0.8c0,0,0,0.1,0,0.1c-0.1,1.5,0.1,3.7,0.7,5.1
			c0.3,1,0.8,1.9,1.5,2.7c1.4,1.5,3,2.4,4.9,3.1c3.9,1.4,8.2,0.4,11.9-1.1C252.2,164.3,255.7,161,259.6,158.3
			C259.6,158.4,259.6,158.3,259.6,158.3z M206,159.9c-0.1-0.1-0.2-0.3-0.3-0.4C205.8,159.6,205.9,159.7,206,159.9
			C206,159.9,206,159.9,206,159.9z"/>
	</g>
</g>
<g>
</g>
<g>
</g>
<g>
</g>
<g>
</g>
<g>
</g>
<g>
</g>
</svg>
